<?xml version="1.0" encoding="utf-8"?>
<!-- Generator: Adobe Illustrator 26.0.0, SVG Export Plug-In . SVG Version: 6.00 Build 0)  -->
<svg version="1.1" id="Camada_1" xmlns="http://www.w3.org/2000/svg" xmlns:xlink="http://www.w3.org/1999/xlink" x="0px" y="0px"
	 viewBox="0 0 549.96 562.21" style="enable-background:new 0 0 549.96 562.21;" xml:space="preserve">
<style type="text/css">
	.st0{fill:#FFFFFF;}
	.st1{fill:#EB5302;}
	.st2{fill:#87A880;}
	.st3{opacity:0.32;}
	.st4{fill:none;stroke:#515151;stroke-miterlimit:10;}
	.st5{fill:#6D8966;}
	.st6{opacity:0.16;}
	.st7{fill:none;}
	.st8{fill-rule:evenodd;clip-rule:evenodd;fill:#211915;}
	.st9{opacity:0.24;}
	.st10{fill:#FFCD15;}
	.st11{fill:#BF6A00;}
	.st12{fill:#87A880;stroke:#000000;stroke-miterlimit:10;}
	.st13{fill:#87A880;stroke:#87A880;stroke-width:2;stroke-miterlimit:10;}
	.st14{clip-path:url(#SVGID_00000002346471850240918160000003833794257747152541_);}
	.st15{fill:none;stroke:#87A880;stroke-width:3;stroke-miterlimit:10;}
	.st16{clip-path:url(#SVGID_00000127761579450674348950000010059776505992266682_);}
	.st17{fill:none;stroke:#87A880;stroke-miterlimit:10;}
	.st18{clip-path:url(#SVGID_00000021822079806782570470000006785800896737192358_);}
	.st19{clip-path:url(#SVGID_00000075867411733739215680000008487969855189504904_);}
	.st20{fill:none;stroke:#FFFFFF;stroke-width:4;stroke-miterlimit:10;}
	.st21{clip-path:url(#SVGID_00000110447931590331045520000007759766867820682639_);}
	.st22{clip-path:url(#SVGID_00000099653444147916086400000010421961776240088980_);}
	.st23{clip-path:url(#SVGID_00000090264276735954791070000002279704861441377665_);}
	.st24{clip-path:url(#SVGID_00000075854873777763781210000007567409019621174175_);}
	.st25{clip-path:url(#SVGID_00000083081736375875006280000005237342859008895626_);}
	.st26{clip-path:url(#SVGID_00000000913600928244938190000004942387779411067551_);}
	.st27{fill:none;stroke:#FFFFFF;stroke-width:3;stroke-miterlimit:10;}
	.st28{clip-path:url(#SVGID_00000108997173934871572430000002198702796138285472_);}
	.st29{fill:#87A880;stroke:#87A880;stroke-miterlimit:10;}
	.st30{clip-path:url(#SVGID_00000040563818889868996810000003582023156885744297_);}
	.st31{opacity:0.29;}
	.st32{clip-path:url(#SVGID_00000098922862798089012280000005283794940746565564_);}
	.st33{clip-path:url(#SVGID_00000114752481813185018960000001842365573639547274_);}
	.st34{fill:none;stroke:#FFFFFF;stroke-miterlimit:10;}
	.st35{opacity:0.21;}
	.st36{clip-path:url(#SVGID_00000052076970574061508790000002311587156127270335_);}
</style>
<g>
	<defs>
		<rect id="SVGID_00000163771258977894257290000009110393932973092500_" x="-1023.29" y="584.9" width="850.15" height="612.46"/>
	</defs>
	<clipPath id="SVGID_00000019661889046159113670000006010238702639930785_">
		<use xlink:href="#SVGID_00000163771258977894257290000009110393932973092500_"  style="overflow:visible;"/>
	</clipPath>
</g>
<g>
	<defs>
		<rect id="SVGID_00000031926190566567996060000001155392532149813150_" x="-1023.29" y="-121.32" width="850.15" height="612.46"/>
	</defs>
	<clipPath id="SVGID_00000168077861958486137340000008454145725137400207_">
		<use xlink:href="#SVGID_00000031926190566567996060000001155392532149813150_"  style="overflow:visible;"/>
	</clipPath>
</g>
<g>
	<defs>
		<rect id="SVGID_00000054234517424761618010000002905765456469768858_" x="-69.27" y="-737.22" width="850.15" height="612.46"/>
	</defs>
	<clipPath id="SVGID_00000054983187184368299910000008517978152604647839_">
		<use xlink:href="#SVGID_00000054234517424761618010000002905765456469768858_"  style="overflow:visible;"/>
	</clipPath>
	<g style="clip-path:url(#SVGID_00000054983187184368299910000008517978152604647839_);">
		<path class="st17" d="M1164,1102.82c19.28-241.37-65.57-447.99-212.95-514.25c-111.85-50.29-292.55-34.52-334,44.1
			c-9.01,17.08-10.79,44.5,1.5,54.53c10.98,8.96,31.95,6.87,45.11-14.36c26.52-42.81-11.74-133.37-69.8-171.87
			c-64.34-42.65-162.45-27.64-243.47,38.67"/>
		<g>
			<path class="st17" d="M583.67,494.82c0,0-30-19.68-46.57-62.21"/>
			<path class="st17" d="M553.19,463.2c0,0,11.05-16.38-4.06-38.24c-15.11-21.86-13.15-27.49-13.15-27.49s-16.78,19.31-9.35,37.97
				C534.06,454.12,553.19,463.2,553.19,463.2z"/>
		</g>
	</g>
</g>
<path class="st0" d="M281.01,61.86c123.57,0.17,223.66,100.57,223.41,224.08c-0.25,123.33-100.69,223.55-223.75,223.26
	C157.01,508.9,56.93,408.51,57.27,285.1C57.61,161.65,157.8,61.69,281.01,61.86z M353.3,333.23c6.07-24.79,6.04-71.78-0.06-95.41
	c-48.27,0-96.59,0-144.86,0c-6.08,24.55-6.05,72.11,0.06,95.41C256.71,333.23,305.04,333.23,353.3,333.23z M216.3,205.32
	c43.36,0,85.97,0,129.1,0c-13.16-40.29-34.36-74.99-64.37-104.98C250.9,130.36,229.52,165,216.3,205.32z M216.21,365.57
	c13.37,40.5,34.63,75.14,64.63,104.99c30.09-30.24,51.51-64.77,64.55-104.99C302.05,365.57,259.5,365.57,216.21,365.57z
	 M175.62,333.26c-5.07-32.11-4.95-63.69-0.06-95.44c-27.1,0-53.62,0-80.33,0c-8.07,32-8.13,63.73,0.06,95.44
	C122.26,333.26,148.64,333.26,175.62,333.26z M386.05,237.79c5.09,32.11,4.94,63.69,0.06,95.46c27.09,0,53.62,0,80.32,0
	c8.05-31.99,8.13-63.73-0.05-95.46C439.44,237.79,413.06,237.79,386.05,237.79z M181.15,205.5c8.16-18.99,14.97-37.97,24.27-55.64
	c9.34-17.76,21.15-34.23,31.5-50.65c-48.04,6.41-121.22,66.06-129.32,106.29C132.55,205.5,157.48,205.5,181.15,205.5z M323.6,99.09
	c25.51,31.93,44.01,67.26,55.26,106.3c25.32,0,50.32,0,76.22,0C427.28,149.28,383.74,113.94,323.6,99.09z M323.53,471.8
	c44.15-2.46,117.57-61.97,130.72-106.14c-25.09,0-50.11,0-75.1,0C362.22,412.32,362.09,418.12,323.53,471.8z M182.83,365.66
	c-25.55,0-50.43,0-75.37,0c12.78,43.92,86.12,103.35,131.36,106.23C212.66,440.2,194.12,404.83,182.83,365.66z"/>
</svg>
