<svg id="Layer_1" data-name="Layer 1" xmlns="http://www.w3.org/2000/svg" viewBox="0 0 1075.22 573.88"><defs><style>.cls-1{fill:#63375b;}</style></defs><path class="cls-1" d="M1055.47,529.84h91.7c66,0,111.31,39.8,111.31,100.93S1213.21,731.7,1147.17,731.7h-91.7Zm89.4,163.5c40.08,0,66.33-23.94,66.33-62.57s-26.23-62.56-66.33-62.56h-42.68V693.36h42.68Z" transform="translate(-1055.47 -216.04)"/><path class="cls-1" d="M1453.19,666.8H1335.82c4.33,19.32,20.76,31.15,44.4,31.15,16.44,0,28.27-4.91,38.93-15l23.94,25.95c-14.43,16.44-36,25.09-64,25.09-53.63,0-88.51-33.74-88.51-79.87,0-46.43,35.46-79.87,82.76-79.87,45.56,0,80.73,30.56,80.73,80.45C1454.05,658.15,1453.47,663.06,1453.19,666.8Zm-117.93-26.23h76.4c-3.17-19.61-17.88-32.29-38.06-32.29C1353.12,608.26,1338.42,620.67,1335.26,640.57Z" transform="translate(-1055.47 -216.04)"/><path class="cls-1" d="M1480.64,717.26l15-32.31c13.84,8.94,34.88,15,53.91,15,20.76,0,28.55-5.47,28.55-14.12,0-25.37-93.73.58-93.73-61.42,0-29.41,26.54-50.17,71.8-50.17,21.35,0,45,4.9,59.69,13.55l-15,32a89.1,89.1,0,0,0-44.7-11.53c-20.18,0-28.83,6.34-28.83,14.43,0,26.53,93.73.86,93.73,62,0,28.83-26.82,49.31-73.25,49.31C1521.58,734,1495,726.78,1480.64,717.26Z" transform="translate(-1055.47 -216.04)"/><path class="cls-1" d="M1654.85,529.84c0-14.12,11.24-25.08,28-25.08s28,10.38,28,24.22c0,15-11.25,25.95-28,25.95S1654.85,544,1654.85,529.84Zm5.47,46.72h45V731.68h-45Z" transform="translate(-1055.47 -216.04)"/><path class="cls-1" d="M1918.71,576.56V705.73c0,57.68-31.15,84.19-87.09,84.19-29.41,0-58-7.2-76.13-21.34l17.89-32.29c13.26,10.66,34.88,17.58,54.78,17.58,31.72,0,45.56-14.42,45.56-42.38v-6.64c-11.82,13-28.83,19.31-49,19.31-43,0-77.58-29.69-77.58-75s34.61-75,77.58-75c21.62,0,39.51,7.2,51.32,22.21v-19.9h42.67Zm-44.4,72.66c0-22.79-17-38.06-40.66-38.06s-40.94,15.29-40.94,38.06,17.3,38.06,40.94,38.06S1874.31,672,1874.31,649.22Z" transform="translate(-1055.47 -216.04)"/><path class="cls-1" d="M2130.7,642.87v88.81h-45V649.79c0-25.09-11.52-36.62-31.42-36.62-21.63,0-37.2,13.26-37.2,41.81v76.7h-45V576.56h43v18.16c12.11-13.26,30.28-20.48,51.32-20.48C2103,574.24,2130.7,595.59,2130.7,642.87Z" transform="translate(-1055.47 -216.04)"/><path class="cls-1" d="M1190.14,342.06V430h-14.42v-86.8c0-34-18.17-51.91-48.73-51.91-35.47,0-57.09,22.78-57.09,58.54V430h-14.43V216h14.43v94.88c10.38-20.48,31.14-32.59,59.1-32.59C1165.62,278.33,1190.14,300,1190.14,342.06Z" transform="translate(-1055.47 -216.04)"/><path class="cls-1" d="M1411.06,354.75c0,45-32,76.41-74.39,76.41-27.12,0-49.89-13.56-61.72-36.62V430h-13.84V216h14.42v97.75c12.11-22.49,34.6-35.46,61.14-35.46C1379.06,278.33,1411.06,309.47,1411.06,354.75Zm-14.4,0c0-37.78-26.24-63.43-60.84-63.43s-60.55,25.67-60.55,63.43,26,63.43,60.55,63.43S1396.66,392.51,1396.66,354.75Z" transform="translate(-1055.47 -216.04)"/><path class="cls-1" d="M1575.48,334.55V430h-13.85V403.18c-9.51,17.3-28,28-54.21,28-33.74,0-54.2-17.3-54.2-43,0-22.77,14.42-42.1,56.23-42.1h51.62V334c0-28-15.29-43-44.7-43-20.76,0-39.51,7.79-51.9,19l-7.21-10.38c15-13.26,36.92-21.35,60.26-21.35C1554.71,278.33,1575.48,297.36,1575.48,334.55Zm-14.41,51V357.33h-51.32c-31.14,0-42.11,13-42.11,30.28,0,19.61,15.29,31.72,41.81,31.72C1534.82,419.33,1552.4,407.22,1561.07,385.59Z" transform="translate(-1055.47 -216.04)"/><path class="cls-1" d="M1630.31,354.75c0-45,32-76.42,76.12-76.42,23.94,0,44.7,9.23,57.1,27.68l-10.68,7.78c-10.95-15.28-27.69-22.49-46.43-22.49-35.47,0-61.42,25.37-61.42,63.43s26,63.43,61.42,63.43c18.74,0,35.46-7.2,46.43-22.49l10.68,7.79c-12.4,18.16-33.18,27.68-57.1,27.68C1662.32,431.16,1630.31,399.43,1630.31,354.75Z" transform="translate(-1055.47 -216.04)"/><path class="cls-1" d="M1950.43,342.06V430H1936v-86.8c0-34-18.17-51.91-48.73-51.91-35.47,0-57.09,22.78-57.09,58.54V430h-14.42V216h14.42v94.88c10.38-20.48,31.14-32.59,59.1-32.59C1925.91,278.33,1950.43,300,1950.43,342.06Z" transform="translate(-1055.47 -216.04)"/></svg>